<?xml version="1.0" encoding="UTF-8" standalone="no"?>
<!DOCTYPE svg PUBLIC "-//W3C//DTD SVG 1.1//EN" "http://www.w3.org/Graphics/SVG/1.1/DTD/svg11.dtd">
<!--<svg width="456" height="456" viewBox="0 0 456 456" version="1.1" xmlns="http://www.w3.org/2000/svg" xmlns:xlink="http://www.w3.org/1999/xlink" xml:space="preserve" xmlns:serif="http://www.serif.com/" style="fill-rule:evenodd;clip-rule:evenodd;stroke-linejoin:round;stroke-miterlimit:2;">
    <path d="m 105.50037,281.60863 c -2.70293,0 -5.00091,-0.90042 -6.893127,-2.70209 -1.892214,-1.84778 -2.837901,-4.04181 -2.837901,-6.58209 0,-2.58722 0.945687,-4.80389 2.837901,-6.65167 1.892217,-1.84778 4.190197,-2.77167 6.893127,-2.77167 2.74819,0 5.06798,0.92389 6.96019,2.77167 1.93749,1.84778 2.90581,4.06445 2.90581,6.65167 0,2.54028 -0.96832,4.73431 -2.90581,6.58209 -1.89221,1.80167 -4.212,2.70209 -6.96019,2.70209 z" style="fill:#ffffff;fill-rule:nonzero;stroke-width:0.838376" />
    <path d="M 213.56111,280.08446 H 195.99044 L 149.69953,207.0544 c -1.17121,-1.84778 -2.14037,-3.76515 -2.90581,-5.75126 h -0.40578 c 0.36051,2.12528 0.54076,6.67515 0.54076,13.6496 v 65.13172 h -15.54349 v -99.36009 h 18.71925 l 44.7374,71.29798 c 1.89222,2.95695 3.1087,4.98917 3.64945,6.09751 h 0.26996 c -0.45021,-2.6325 -0.67573,-7.09015 -0.67573,-13.37293 v -64.02256 h 15.47557 z" style="fill:#ffffff;fill-rule:nonzero;stroke-width:0.838376" />
    <path d="m 289.25134,280.08446 h -54.40052 v -99.36009 h 52.23835 v 13.99669 h -36.15411 v 28.13085 h 33.31621 v 13.9271 h -33.31621 v 29.37835 h 38.31628 z" style="fill:#ffffff;fill-rule:nonzero;stroke-width:0.838376" />
    <path d="M 366.56466,194.72106 H 338.7222 v 85.3634 h -16.08423 v -85.3634 h -27.77455 v -13.99669 h 71.70124 z" style="fill:#ffffff;fill-rule:nonzero;stroke-width:0.838376" />
</svg>-->


<svg xmlns="http://www.w3.org/2000/svg" xml:space="preserve" width="63.5mm" height="63.5mm" version="1.1" style="shape-rendering:geometricPrecision; text-rendering:geometricPrecision; image-rendering:optimizeQuality; fill-rule:evenodd; clip-rule:evenodd"
viewBox="0 0 976.89 976.89"
 xmlns:xlink="http://www.w3.org/1999/xlink"
 xmlns:xodm="http://www.corel.com/coreldraw/odm/2003">
 <defs>
  <style type="text/css">
   <![CDATA[
    .str0 {stroke:#86A9AF;stroke-width:1.17;stroke-miterlimit:22.9256}
    .fil1 {fill:#3B437F}
    .fil3 {fill:#5AFEB7}
    .fil2 {fill:#86A9AF}
    .fil0 {fill:#AAC7C8}
    .fil4 {fill:#FEFEFE;fill-rule:nonzero}
   ]]>
  </style>
 </defs>
 <g id="Capa_x0020_1">
  <metadata id="CorelCorpID_0Corel-Layer"/>
  <g id="_2398170028192">
   <path class="fil0" d="M118.14 167.98l49.84 -49.84c10.64,-10.63 23.7,-5.92 37.03,-1.63l52.78 16.97c42.86,-27.91 91.08,-48.27 142.79,-59.19l25.29 -49.26c6.4,-12.46 12.3,-25.03 27.34,-25.03l70.48 0c15.04,0 20.94,12.57 27.34,25.03l25.29 49.28c51.7,10.92 99.91,31.28 142.76,59.18l52.8 -16.98c13.33,-4.29 26.4,-9 37.03,1.63l49.84 49.84c10.63,10.64 5.92,23.7 1.63,37.03l-16.97 52.78c27.91,42.86 48.27,91.08 59.2,142.79l49.26 25.28c12.46,6.4 25.03,12.3 25.03,27.34l0 70.48c0,15.04 -12.57,20.94 -25.03,27.34l-49.28 25.29c-10.92,51.7 -31.28,99.91 -59.18,142.76l16.98 52.8c4.29,13.33 9,26.4 -1.63,37.03l-49.84 49.84c-10.64,10.63 -23.7,5.92 -37.03,1.63l-52.78 -16.97c-42.86,27.91 -91.08,48.27 -142.79,59.2l-25.28 49.26c-6.4,12.46 -12.3,25.03 -27.34,25.03l-70.48 0c-15.04,0 -20.94,-12.57 -27.34,-25.03l-25.29 -49.28c-51.7,-10.92 -99.91,-31.28 -142.76,-59.18l-52.8 16.98c-13.33,4.29 -26.4,9 -37.03,-1.63l-49.84 -49.84c-10.63,-10.64 -5.92,-23.7 -1.63,-37.03l16.97 -52.78c-27.91,-42.86 -48.27,-91.08 -59.2,-142.79l-49.26 -25.28c-12.46,-6.4 -25.03,-12.3 -25.03,-27.34l0 -70.48c0,-15.04 12.57,-20.94 25.03,-27.34l49.26 -25.28c10.92,-51.71 31.28,-99.93 59.19,-142.79l-16.97 -52.78c-4.29,-13.33 -9,-26.4 1.63,-37.03zm370.3 -51.04c205.18,0 371.51,166.33 371.51,371.51 0,205.18 -166.33,371.51 -371.51,371.51 -205.18,0 -371.51,-166.33 -371.51,-371.51 0,-205.18 166.33,-371.51 371.51,-371.51z"/>
   <circle class="fil1" cx="488.45" cy="488.45" r="287.61"/>
   <path class="fil2 str0" d="M488.45 116.94c205.18,0 371.51,166.33 371.51,371.51 0,205.18 -166.33,371.51 -371.51,371.51 -205.18,0 -371.51,-166.33 -371.51,-371.51 0,-205.18 166.33,-371.51 371.51,-371.51zm0 34.18c186.3,0 337.33,151.03 337.33,337.33 0,186.3 -151.03,337.33 -337.33,337.33 -186.3,0 -337.33,-151.03 -337.33,-337.33 0,-186.3 151.03,-337.33 337.33,-337.33z"/>
   <rect class="fil3" transform="matrix(-0.704083 -0.188658 -0.188658 0.704083 540.654 356.784)" width="44.86" height="386.02" rx="22.43" ry="22.43"/>
   <path class="fil3" d="M686.01 475.63l0 0 0.29 0.3 0 0 0.28 0.31 0 0 0.27 0.31 0 0 0.26 0.32 0 0 0.25 0.32 0 0 0.24 0.32 0 0 0.24 0.33 0 0 0.22 0.33 0 0 0.22 0.34 0 0 0.21 0.34 0 0 0.2 0.35 0 0 0.19 0.35 0 0 0.18 0.36 0 0 0.17 0.36c2.8,6.05 1.71,13.49 -3.26,18.46l-84.75 84.74c-6.36,6.36 -16.76,6.36 -23.12,0l0 -0c-6.36,-6.36 -6.36,-16.76 0,-23.12l73.18 -73.18 -73.18 -73.18c-6.36,-6.36 -6.36,-16.76 0,-23.12l0 -0c6.36,-6.36 16.76,-6.36 23.12,0l84.75 84.75z"/>
   <path class="fil3" d="M291.68 475.63l-0 0 -0.29 0.3 -0 0 -0.28 0.31 -0 0 -0.27 0.31 -0 0 -0.26 0.32 -0 0 -0.25 0.32 -0 0 -0.24 0.32 -0 0 -0.24 0.33 -0 0 -0.22 0.33 -0 0 -0.22 0.34 -0 0 -0.21 0.34 -0 0 -0.2 0.35 -0 0 -0.19 0.35 -0 0 -0.18 0.36 -0 0 -0.17 0.36c-2.8,6.05 -1.71,13.49 3.26,18.46l84.75 84.74c6.36,6.36 16.76,6.36 23.12,0l0 -0c6.36,-6.36 6.36,-16.76 0,-23.12l-73.18 -73.18 73.18 -73.18c6.36,-6.36 6.36,-16.76 0,-23.12l-0 -0c-6.36,-6.36 -16.76,-6.36 -23.12,0l-84.75 84.75z"/>
   <path class="fil4" d="M263.2 417.83l-9.22 -12.83 -14.11 3.1 2.11 -5.57 8.8 -1.98 -5.27 -7.32 2.12 -5.58 8.5 11.7 15.4 -3.46 -2.18 5.73 -9.98 2.2 6.01 8.27 -2.18 5.74zm7.93 -22.21l-7.59 -13.85 -14.38 1.36 2.78 -5.27 8.97 -0.89 -4.34 -7.91 2.78 -5.28 7 12.65 15.7 -1.56 -2.86 5.42 -10.18 0.96 4.96 8.95 -2.86 5.43zm10.66 -21l-6.53 -14.38 -14.44 0.28 3.16 -5.05 9.02 -0.22 -3.73 -8.21 3.17 -5.06 6.04 13.14 15.78 -0.39 -3.25 5.19 -10.22 0.2 4.28 9.29 -3.26 5.2zm23.21 -48.3l4.37 -2.76c1.61,2.39 2.35,4.69 2.23,6.91 -0.13,2.22 -1.07,4.35 -2.84,6.4 -2.19,2.55 -4.86,3.89 -8.01,4.03 -3.14,0.14 -6.23,-1.08 -9.24,-3.68 -3.19,-2.74 -4.96,-5.7 -5.31,-8.86 -0.35,-3.16 0.63,-6.09 2.94,-8.77 2.02,-2.35 4.35,-3.65 6.99,-3.92 1.57,-0.17 3.31,0.19 5.22,1.08l-2.38 4.61c-1.18,-0.62 -2.38,-0.83 -3.57,-0.6 -1.2,0.23 -2.23,0.86 -3.12,1.88 -1.22,1.42 -1.71,3.01 -1.45,4.77 0.25,1.76 1.52,3.62 3.8,5.59 2.42,2.08 4.52,3.12 6.29,3.14 1.78,0.01 3.27,-0.68 4.47,-2.07 0.89,-1.03 1.32,-2.2 1.31,-3.5 -0.02,-1.3 -0.58,-2.72 -1.71,-4.25zm-4.18 -19.42l3.73 -3.5 9.38 9.97c1.49,1.58 2.5,2.56 3.03,2.95 0.87,0.6 1.81,0.86 2.83,0.76 1.03,-0.1 2.05,-0.64 3.08,-1.6 1.04,-0.98 1.63,-1.93 1.75,-2.87 0.12,-0.93 -0.06,-1.76 -0.54,-2.49 -0.48,-0.73 -1.41,-1.82 -2.78,-3.28l-9.58 -10.18 3.73 -3.5 9.1 9.67c2.08,2.21 3.45,3.87 4.11,4.97 0.66,1.1 1.02,2.22 1.07,3.36 0.06,1.13 -0.19,2.3 -0.74,3.52 -0.55,1.22 -1.55,2.52 -3,3.88 -1.75,1.65 -3.27,2.7 -4.56,3.14 -1.28,0.44 -2.5,0.59 -3.63,0.43 -1.14,-0.16 -2.12,-0.51 -2.96,-1.07 -1.24,-0.82 -2.82,-2.27 -4.76,-4.33l-9.24 -9.82zm35.96 1.04l-15.56 -19.9 8.46 -6.62c2.13,-1.66 3.81,-2.69 5.06,-3.09 1.25,-0.4 2.51,-0.37 3.8,0.09 1.3,0.46 2.4,1.28 3.32,2.45 1.17,1.5 1.7,3.07 1.58,4.73 -0.12,1.66 -0.94,3.29 -2.49,4.91 1.26,-0.17 2.41,-0.18 3.44,-0.01 1.04,0.16 2.64,0.65 4.81,1.45l5.46 1.98 -4.8 3.76 -6.28 -2.09c-2.24,-0.74 -3.71,-1.15 -4.41,-1.26 -0.69,-0.1 -1.31,-0.06 -1.85,0.12 -0.55,0.19 -1.28,0.64 -2.21,1.37l-0.82 0.64 6.5 8.31 -4.03 3.15zm-4.95 -14.63l2.98 -2.33c1.92,-1.51 3.06,-2.53 3.42,-3.07 0.35,-0.53 0.51,-1.11 0.47,-1.72 -0.04,-0.61 -0.29,-1.22 -0.76,-1.81 -0.52,-0.67 -1.13,-1.07 -1.81,-1.21 -0.68,-0.13 -1.39,0 -2.12,0.4 -0.37,0.21 -1.36,0.95 -2.99,2.22l-3.14 2.45 3.95 5.06zm19.83 -6.64l3.9 -3.13c1.16,1.23 2.33,1.92 3.52,2.08 1.19,0.16 2.43,-0.19 3.73,-1.03 1.37,-0.89 2.21,-1.86 2.53,-2.89 0.32,-1.03 0.22,-1.94 -0.28,-2.72 -0.33,-0.5 -0.75,-0.83 -1.27,-1 -0.52,-0.16 -1.23,-0.13 -2.12,0.09 -0.61,0.15 -1.94,0.58 -4.01,1.29 -2.65,0.91 -4.71,1.26 -6.17,1.02 -2.06,-0.32 -3.63,-1.33 -4.72,-3.01 -0.7,-1.08 -1.06,-2.29 -1.07,-3.63 -0,-1.34 0.41,-2.62 1.24,-3.86 0.83,-1.24 2.05,-2.39 3.67,-3.45 2.65,-1.72 5.02,-2.44 7.13,-2.13 2.11,0.3 3.83,1.42 5.18,3.34l-4.19 2.94c-0.9,-0.98 -1.79,-1.5 -2.7,-1.59 -0.91,-0.09 -1.96,0.25 -3.15,1.03 -1.23,0.8 -2.03,1.69 -2.39,2.65 -0.23,0.62 -0.18,1.21 0.18,1.76 0.33,0.5 0.82,0.79 1.47,0.87 0.84,0.11 2.45,-0.27 4.84,-1.13 2.39,-0.86 4.26,-1.35 5.59,-1.47 1.34,-0.12 2.58,0.09 3.74,0.63 1.16,0.55 2.17,1.49 3.04,2.82 0.79,1.21 1.2,2.57 1.21,4.07 0.01,1.5 -0.42,2.91 -1.32,4.22 -0.89,1.32 -2.26,2.58 -4.1,3.77 -2.68,1.74 -5.13,2.46 -7.37,2.16 -2.24,-0.3 -4.26,-1.54 -6.08,-3.72zm19.34 -17.54c-1.06,-2.35 -1.6,-4.48 -1.62,-6.39 -0.01,-1.41 0.23,-2.79 0.72,-4.13 0.48,-1.34 1.16,-2.48 2.04,-3.42 1.16,-1.25 2.68,-2.31 4.56,-3.15 3.4,-1.53 6.59,-1.7 9.58,-0.52 2.99,1.19 5.33,3.67 7.03,7.42 1.68,3.72 1.98,7.1 0.91,10.11 -1.07,3.02 -3.3,5.29 -6.68,6.82 -3.42,1.55 -6.62,1.73 -9.59,0.55 -2.96,-1.18 -5.28,-3.6 -6.94,-7.28zm4.72 -2.32c1.18,2.61 2.68,4.31 4.49,5.12 1.81,0.8 3.65,0.78 5.5,-0.05 1.86,-0.84 3.08,-2.2 3.67,-4.07 0.58,-1.88 0.27,-4.15 -0.93,-6.82 -1.19,-2.64 -2.66,-4.35 -4.41,-5.12 -1.74,-0.78 -3.58,-0.73 -5.5,0.13 -1.92,0.87 -3.17,2.22 -3.75,4.07 -0.58,1.85 -0.27,4.1 0.93,6.75zm28.53 -25.59l8.93 -2.61c2.01,-0.59 3.59,-0.88 4.74,-0.88 1.54,0 2.98,0.39 4.3,1.17 1.33,0.77 2.48,1.85 3.46,3.25 0.98,1.39 1.8,3.23 2.47,5.5 0.58,2 0.84,3.79 0.76,5.38 -0.09,1.94 -0.53,3.62 -1.34,5.04 -0.6,1.08 -1.56,2.06 -2.86,2.94 -0.98,0.66 -2.37,1.25 -4.17,1.78l-9.19 2.69 -7.09 -24.24zm6.11 2.66l4.7 16.05 3.64 -1.06c1.36,-0.4 2.32,-0.76 2.88,-1.09 0.74,-0.43 1.29,-0.96 1.68,-1.59 0.38,-0.63 0.58,-1.53 0.59,-2.71 0.02,-1.18 -0.26,-2.71 -0.8,-4.59 -0.55,-1.87 -1.13,-3.26 -1.76,-4.17 -0.62,-0.91 -1.31,-1.55 -2.07,-1.94 -0.76,-0.39 -1.62,-0.55 -2.59,-0.48 -0.72,0.05 -2.08,0.36 -4.07,0.94l-2.19 0.64zm25.46 14.45l-4.1 -24.92 18.45 -3.03 0.69 4.21 -13.4 2.2 0.91 5.53 12.46 -2.05 0.69 4.21 -12.46 2.05 1.11 6.75 13.89 -2.28 0.69 4.21 -18.93 3.11zm32.96 -5.22l-0.3 -25.26 18.69 -0.22 0.05 4.27 -13.58 0.16 0.07 5.61 12.63 -0.15 0.05 4.27 -12.63 0.15 0.08 6.84 14.07 -0.16 0.05 4.27 -19.19 0.23zm22.83 -9l5 -0.12c0.17,1.68 0.68,2.94 1.53,3.79 0.85,0.85 2.05,1.33 3.59,1.45 1.63,0.12 2.89,-0.13 3.77,-0.76 0.88,-0.63 1.36,-1.41 1.43,-2.33 0.04,-0.6 -0.09,-1.12 -0.41,-1.56 -0.31,-0.44 -0.9,-0.85 -1.74,-1.22 -0.58,-0.26 -1.9,-0.72 -3.97,-1.41 -2.66,-0.89 -4.5,-1.86 -5.53,-2.94 -1.44,-1.51 -2.08,-3.26 -1.92,-5.26 0.1,-1.28 0.55,-2.46 1.36,-3.53 0.81,-1.06 1.92,-1.84 3.33,-2.32 1.41,-0.48 3.08,-0.65 5.01,-0.51 3.15,0.24 5.47,1.12 6.95,2.64 1.49,1.52 2.18,3.45 2.08,5.79l-5.11 -0.21c-0.12,-1.32 -0.51,-2.29 -1.18,-2.91 -0.66,-0.62 -1.71,-0.99 -3.13,-1.1 -1.46,-0.11 -2.64,0.11 -3.51,0.65 -0.56,0.35 -0.87,0.85 -0.92,1.51 -0.05,0.6 0.17,1.13 0.64,1.59 0.6,0.59 2.11,1.27 4.53,2.05 2.42,0.77 4.2,1.52 5.33,2.23 1.14,0.72 2,1.64 2.59,2.77 0.59,1.14 0.82,2.5 0.7,4.09 -0.11,1.44 -0.61,2.77 -1.51,3.96 -0.9,1.2 -2.1,2.05 -3.61,2.55 -1.51,0.5 -3.36,0.67 -5.55,0.51 -3.18,-0.24 -5.57,-1.16 -7.17,-2.76 -1.6,-1.59 -2.45,-3.81 -2.57,-6.64zm24.19 10.02l4.1 -24.93 8.07 1.33c3.06,0.5 5.03,0.95 5.92,1.35 1.36,0.61 2.43,1.62 3.18,3.03 0.76,1.41 0.97,3.11 0.65,5.09 -0.25,1.53 -0.74,2.77 -1.46,3.72 -0.73,0.95 -1.57,1.66 -2.52,2.11 -0.95,0.45 -1.89,0.7 -2.8,0.75 -1.24,0.04 -2.99,-0.12 -5.27,-0.5l-3.27 -0.54 -1.54 9.4 -5.05 -0.83zm8.45 -19.88l-1.17 7.1 2.74 0.45c1.98,0.33 3.32,0.41 4.03,0.26 0.71,-0.15 1.3,-0.47 1.77,-0.97 0.47,-0.49 0.76,-1.11 0.89,-1.85 0.15,-0.91 0.01,-1.7 -0.42,-2.38 -0.44,-0.68 -1.04,-1.16 -1.84,-1.45 -0.58,-0.21 -1.77,-0.46 -3.58,-0.76l-2.42 -0.4zm14.89 23.29l7.24 -24.2 17.91 5.36 -1.22 4.09 -13.01 -3.89 -1.61 5.37 12.1 3.62 -1.22 4.09 -12.1 -3.62 -1.96 6.56 13.49 4.03 -1.22 4.09 -18.39 -5.5zm41.02 3.6l4.08 3.17c-1.7,2.33 -3.61,3.81 -5.74,4.45 -2.13,0.63 -4.46,0.47 -6.99,-0.49 -3.14,-1.19 -5.31,-3.24 -6.52,-6.15 -1.2,-2.91 -1.1,-6.22 0.31,-9.94 1.49,-3.93 3.67,-6.6 6.52,-8.01 2.85,-1.41 5.94,-1.48 9.25,-0.23 2.89,1.1 4.92,2.85 6.07,5.24 0.69,1.42 0.95,3.18 0.77,5.28l-5.14 -0.67c0.18,-1.33 -0.03,-2.52 -0.65,-3.56 -0.62,-1.05 -1.56,-1.81 -2.83,-2.29 -1.75,-0.67 -3.42,-0.58 -4.98,0.27 -1.57,0.84 -2.89,2.66 -3.95,5.48 -1.13,2.98 -1.4,5.31 -0.81,6.98 0.6,1.68 1.75,2.84 3.47,3.5 1.27,0.48 2.52,0.5 3.74,0.03 1.22,-0.46 2.36,-1.48 3.41,-3.06zm5.1 12.3l10.6 -22.93 4.64 2.14 -10.59 22.93 -4.64 -2.14zm28.85 15.42l-4.79 -2.73 0.95 -6.08 -8.81 -5.01 -4.67 3.96 -4.7 -2.68 21.02 -17.1 4.7 2.67 -3.7 26.96zm-3.17 -13.33l1.57 -9.86 -7.59 6.44 6.02 3.42zm5.56 14.93l14.2 -20.63 4.21 2.9 -11.78 17.12 10.43 7.18 -2.42 3.52 -14.65 -10.08zm17.24 12.37l15.89 -19.64 3.98 3.22 -15.89 19.64 -3.98 -3.22zm6.28 4.6l3.14 -3.34 20.94 -2.8 -8.58 -8.09 2.93 -3.11 13.45 12.68 -2.71 2.88 -21.75 2.91 10.45 9.85 -2.93 3.11 -14.94 -14.08zm32.5 33.25l-3.72 -4.07 2.78 -5.49 -6.84 -7.48 -5.66 2.33 -3.65 -3.99 25.26 -9.8 3.64 3.99 -11.82 24.51zm1.09 -13.66l4.53 -8.9 -9.2 3.79 4.67 5.11zm17.53 23.71l1.58 4.92c-2.72,0.97 -5.13,1.11 -7.25,0.43 -2.11,-0.68 -3.94,-2.12 -5.49,-4.35 -1.92,-2.76 -2.55,-5.68 -1.9,-8.76 0.65,-3.08 2.6,-5.76 5.87,-8.03 3.45,-2.4 6.75,-3.38 9.9,-2.92 3.15,0.45 5.74,2.13 7.76,5.04 1.77,2.54 2.45,5.12 2.05,7.75 -0.23,1.56 -1.01,3.16 -2.35,4.79l-3.86 -3.46c0.9,-0.99 1.39,-2.09 1.47,-3.3 0.08,-1.22 -0.27,-2.38 -1.04,-3.48 -1.07,-1.54 -2.49,-2.41 -4.26,-2.59 -1.77,-0.2 -3.89,0.57 -6.36,2.29 -2.62,1.82 -4.15,3.59 -4.61,5.31 -0.46,1.72 -0.16,3.33 0.89,4.84 0.78,1.12 1.8,1.83 3.06,2.14 1.27,0.31 2.78,0.12 4.54,-0.6zm-2.63 12.96l21.17 -13.79 2.79 4.29 -21.16 13.79 -2.79 -4.29zm15.59 1.71c2.27,-1.22 4.35,-1.91 6.26,-2.06 1.4,-0.11 2.8,0.03 4.17,0.42 1.37,0.39 2.56,0.99 3.56,1.79 1.33,1.07 2.49,2.51 3.47,4.32 1.77,3.28 2.17,6.45 1.2,9.52 -0.98,3.07 -3.28,5.58 -6.9,7.54 -3.6,1.94 -6.94,2.48 -10.02,1.63 -3.09,-0.85 -5.51,-2.92 -7.27,-6.18 -1.78,-3.31 -2.2,-6.48 -1.23,-9.53 0.96,-3.04 3.22,-5.52 6.77,-7.44zm2.65 4.54c-2.52,1.36 -4.11,2.98 -4.79,4.84 -0.67,1.86 -0.52,3.7 0.44,5.49 0.97,1.8 2.41,2.92 4.32,3.37 1.91,0.45 4.16,-0.02 6.74,-1.42 2.55,-1.38 4.15,-2.96 4.8,-4.76 0.65,-1.8 0.48,-3.62 -0.52,-5.48 -1,-1.85 -2.44,-3 -4.32,-3.45 -1.88,-0.45 -4.1,0.02 -6.67,1.4zm14.99 -3.6l5.67 -0.34 2.56 4.75 -6.79 -1.74 -1.44 -2.67zm-15.82 30.43l23.55 -9.14 1.79 4.62 -12.02 15.81 15.78 -6.12 1.71 4.41 -23.55 9.14 -1.85 -4.76 11.78 -15.55 -15.48 6.01 -1.71 -4.41z"/>
   <path class="fil4" d="M221.88 482.33l25.25 -0.49 0.16 8.18c0.06,3.1 -0.03,5.12 -0.26,6.06 -0.35,1.45 -1.15,2.68 -2.41,3.68 -1.25,1 -2.88,1.52 -4.89,1.56 -1.55,0.03 -2.86,-0.23 -3.92,-0.76 -1.07,-0.54 -1.91,-1.24 -2.53,-2.09 -0.62,-0.85 -1.03,-1.73 -1.24,-2.62 -0.26,-1.21 -0.42,-2.97 -0.47,-5.27l-0.06 -3.32 -9.52 0.18 -0.1 -5.11zm21.08 4.71l-7.2 0.14 0.05 2.78c0.04,2 0.2,3.34 0.48,4.01 0.28,0.67 0.7,1.19 1.28,1.56 0.57,0.37 1.23,0.55 1.98,0.54 0.92,-0.02 1.68,-0.3 2.26,-0.85 0.59,-0.55 0.95,-1.24 1.09,-2.07 0.1,-0.61 0.14,-1.83 0.1,-3.66l-0.05 -2.45zm-20.99 18.86l25.04 -3.33 1.42 10.65c0.36,2.68 0.39,4.65 0.1,5.92 -0.29,1.28 -0.96,2.35 -2.01,3.23 -1.06,0.88 -2.32,1.42 -3.8,1.62 -1.88,0.25 -3.5,-0.09 -4.88,-1.03 -1.37,-0.94 -2.36,-2.48 -2.97,-4.63 -0.49,1.18 -1.07,2.16 -1.74,2.97 -0.67,0.81 -1.9,1.95 -3.69,3.41l-4.48 3.7 -0.8 -6.05 4.99 -4.35c1.77,-1.56 2.87,-2.61 3.32,-3.16 0.44,-0.54 0.72,-1.1 0.83,-1.66 0.11,-0.57 0.09,-1.43 -0.06,-2.6l-0.14 -1.03 -10.46 1.39 -0.67 -5.07zm15.12 3.15l0.5 3.74c0.32,2.42 0.63,3.92 0.91,4.5 0.28,0.57 0.7,1 1.25,1.28 0.55,0.28 1.2,0.36 1.95,0.26 0.84,-0.11 1.49,-0.43 1.96,-0.95 0.46,-0.52 0.7,-1.2 0.73,-2.03 0,-0.42 -0.13,-1.66 -0.4,-3.7l-0.52 -3.95 -6.36 0.85zm0.43 18.93c2.54,-0.44 4.74,-0.42 6.59,0.04 1.37,0.34 2.64,0.92 3.82,1.73 1.18,0.81 2.11,1.75 2.8,2.83 0.92,1.44 1.56,3.17 1.91,5.2 0.63,3.67 -0,6.8 -1.9,9.4 -1.9,2.6 -4.88,4.24 -8.94,4.94 -4.03,0.69 -7.37,0.14 -10.02,-1.65 -2.65,-1.79 -4.29,-4.52 -4.92,-8.18 -0.64,-3.7 -0.02,-6.85 1.87,-9.42 1.88,-2.57 4.81,-4.21 8.79,-4.89zm1.06 5.15c-2.82,0.49 -4.85,1.51 -6.08,3.07 -1.23,1.55 -1.67,3.34 -1.33,5.34 0.35,2.01 1.36,3.53 3.02,4.58 1.67,1.04 3.95,1.3 6.84,0.81 2.86,-0.49 4.88,-1.48 6.07,-2.99 1.19,-1.49 1.61,-3.28 1.25,-5.36 -0.36,-2.07 -1.36,-3.63 -3,-4.65 -1.64,-1.02 -3.9,-1.29 -6.77,-0.8zm4.65 33.23l4.06 -1.32 3.4 10.43 -9.58 3.12c-1.32,-0.69 -2.67,-1.88 -4.05,-3.56 -1.38,-1.68 -2.39,-3.51 -3.03,-5.48 -0.82,-2.51 -1.01,-4.87 -0.56,-7.08 0.45,-2.21 1.51,-4.1 3.16,-5.68 1.65,-1.58 3.64,-2.75 5.95,-3.5 2.5,-0.82 4.9,-1.02 7.19,-0.61 2.29,0.42 4.28,1.46 5.98,3.14 1.3,1.28 2.32,3.06 3.07,5.36 0.97,2.98 1.11,5.52 0.4,7.6 -0.71,2.08 -2.09,3.72 -4.15,4.93l-2.48 -4.53c1.07,-0.72 1.8,-1.66 2.18,-2.82 0.38,-1.15 0.34,-2.42 -0.12,-3.82 -0.69,-2.11 -1.91,-3.58 -3.66,-4.38 -1.75,-0.81 -3.95,-0.78 -6.6,0.08 -2.86,0.93 -4.79,2.26 -5.8,3.99 -1.01,1.73 -1.19,3.62 -0.52,5.67 0.33,1.01 0.86,1.96 1.59,2.85 0.73,0.89 1.5,1.61 2.31,2.15l3.05 -0.99 -1.8 -5.53zm-4.04 17.85l23.02 -10.4 4.42 9.79c1.11,2.46 1.71,4.34 1.8,5.64 0.1,1.31 -0.24,2.53 -0.99,3.67 -0.76,1.15 -1.81,2.03 -3.17,2.65 -1.73,0.78 -3.38,0.92 -4.97,0.42 -1.58,-0.5 -2.97,-1.7 -4.18,-3.58 -0.13,1.27 -0.4,2.38 -0.81,3.35 -0.4,0.97 -1.26,2.41 -2.55,4.32l-3.22 4.84 -2.51 -5.56 3.52 -5.6c1.24,-2 2,-3.33 2.26,-3.98 0.26,-0.65 0.37,-1.26 0.32,-1.83 -0.05,-0.57 -0.32,-1.4 -0.81,-2.47l-0.43 -0.94 -9.61 4.34 -2.11 -4.66zm15.38 -1.34l1.56 3.44c1.01,2.23 1.73,3.57 2.17,4.05 0.44,0.47 0.96,0.76 1.56,0.86 0.6,0.11 1.25,0 1.94,-0.31 0.78,-0.35 1.3,-0.84 1.6,-1.47 0.29,-0.63 0.33,-1.35 0.11,-2.15 -0.12,-0.41 -0.6,-1.55 -1.45,-3.43l-1.64 -3.63 -5.85 2.64zm6.26 44.4l-2.72 -4.79 3.92 -4.73 -5 -8.81 -6.04 1.02 -2.67 -4.7 26.81 -3.94 2.67 4.7 -16.97 21.27zm4.1 -13.07l6.4 -7.67 -9.82 1.65 3.42 6.02zm-2.99 15.53l20.57 -14.66 4.45 6.24 -11.4 13.68 16.63 -6.35 4.46 6.25 -20.57 14.66 -2.74 -3.85 16.18 -11.55 -19.08 7.48 -2.85 -4 13.32 -15.57 -16.2 11.52 -2.74 -3.85zm32.03 41.17l-3.63 -4.15 2.89 -5.43 -6.67 -7.63 -5.71 2.21 -3.56 -4.07 25.47 -9.25 3.56 4.07 -12.35 24.24zm1.39 -13.63l4.73 -8.8 -9.28 3.59 4.56 5.21zm18.53 20.07l2.54 4.5c-2.46,1.5 -4.8,2.12 -7.01,1.89 -2.21,-0.24 -4.29,-1.28 -6.26,-3.15 -2.44,-2.31 -3.65,-5.04 -3.64,-8.19 0.01,-3.15 1.38,-6.17 4.12,-9.06 2.89,-3.05 5.93,-4.67 9.11,-4.87 3.18,-0.2 6.05,0.93 8.62,3.36 2.24,2.13 3.44,4.52 3.58,7.18 0.09,1.58 -0.35,3.29 -1.33,5.16l-4.48 -2.6c0.68,-1.15 0.94,-2.33 0.78,-3.54 -0.17,-1.21 -0.75,-2.27 -1.73,-3.2 -1.36,-1.29 -2.93,-1.85 -4.7,-1.68 -1.77,0.17 -3.69,1.34 -5.76,3.53 -2.19,2.31 -3.34,4.36 -3.44,6.13 -0.1,1.78 0.52,3.3 1.85,4.56 0.99,0.94 2.13,1.43 3.43,1.47 1.3,0.04 2.75,-0.45 4.33,-1.5zm0.46 12.79l16.37 -19.23 3.89 3.32 -16.37 19.23 -3.9 -3.32zm13.67 -3.94c1.49,-2.1 3.06,-3.64 4.7,-4.62 1.21,-0.72 2.52,-1.21 3.93,-1.47 1.4,-0.26 2.73,-0.25 3.98,0.03 1.67,0.37 3.34,1.15 5.02,2.34 3.04,2.16 4.8,4.82 5.29,8 0.48,3.18 -0.47,6.45 -2.85,9.81 -2.36,3.33 -5.12,5.3 -8.26,5.9 -3.14,0.6 -6.23,-0.18 -9.26,-2.32 -3.06,-2.17 -4.84,-4.84 -5.32,-8 -0.48,-3.15 0.44,-6.38 2.78,-9.67zm4.39 2.9c-1.66,2.34 -2.37,4.49 -2.15,6.46 0.22,1.97 1.17,3.54 2.83,4.72 1.66,1.18 3.45,1.55 5.37,1.11 1.91,-0.44 3.72,-1.86 5.42,-4.25 1.68,-2.36 2.41,-4.5 2.19,-6.4 -0.21,-1.9 -1.17,-3.46 -2.9,-4.68 -1.72,-1.22 -3.52,-1.61 -5.41,-1.18 -1.89,0.44 -3.67,1.84 -5.36,4.21zm11.84 -9.87l4.94 -2.81 4.4 3.12 -6.86 1.45 -2.47 -1.76zm-0.2 33.67l12.55 -21.92 4.3 2.46 0.61 19.85 8.41 -14.69 4.1 2.35 -12.55 21.92 -4.43 -2.54 -0.64 -19.49 -8.25 14.41 -4.1 -2.35zm36.42 19.36l4.41 -9.67 -2.35 -17.15 5.44 2.48 1.28 11.58 9.44 -6.68 5.34 2.44 -14.51 9.49 -4.4 9.64 -4.65 -2.12zm31.23 -14.69l8.94 2.57c2.02,0.58 3.51,1.18 4.48,1.79 1.3,0.83 2.3,1.92 3.01,3.29 0.71,1.36 1.1,2.89 1.18,4.6 0.08,1.7 -0.21,3.69 -0.86,5.96 -0.58,2 -1.32,3.65 -2.23,4.95 -1.11,1.59 -2.39,2.78 -3.83,3.54 -1.09,0.59 -2.42,0.9 -3.99,0.95 -1.18,0.03 -2.67,-0.21 -4.48,-0.73l-9.2 -2.65 6.99 -24.27zm3.74 5.52l-4.63 16.07 3.64 1.05c1.36,0.39 2.37,0.6 3.02,0.62 0.85,0.03 1.61,-0.12 2.26,-0.44 0.66,-0.32 1.31,-0.98 1.95,-1.97 0.64,-0.99 1.24,-2.43 1.78,-4.3 0.54,-1.88 0.79,-3.36 0.75,-4.46 -0.04,-1.1 -0.28,-2.01 -0.71,-2.75 -0.43,-0.73 -1.07,-1.33 -1.93,-1.79 -0.64,-0.35 -1.95,-0.81 -3.94,-1.38l-2.19 -0.63zm13.81 25.69l4.29 -24.89 18.42 3.18 -0.72 4.21 -13.38 -2.31 -0.95 5.53 12.45 2.15 -0.73 4.21 -12.44 -2.15 -1.16 6.74 13.87 2.39 -0.73 4.21 -18.91 -3.26zm22.45 -3.95l5 -0.12c0.17,1.68 0.68,2.94 1.53,3.79 0.85,0.85 2.04,1.33 3.59,1.45 1.63,0.12 2.89,-0.13 3.77,-0.76 0.88,-0.63 1.36,-1.41 1.43,-2.33 0.04,-0.6 -0.09,-1.12 -0.41,-1.56 -0.31,-0.44 -0.9,-0.85 -1.74,-1.22 -0.58,-0.26 -1.9,-0.72 -3.97,-1.41 -2.66,-0.89 -4.51,-1.86 -5.53,-2.94 -1.44,-1.51 -2.08,-3.26 -1.92,-5.26 0.1,-1.28 0.55,-2.46 1.36,-3.53 0.81,-1.06 1.92,-1.84 3.33,-2.32 1.41,-0.48 3.08,-0.65 5.01,-0.5 3.15,0.24 5.47,1.12 6.95,2.64 1.49,1.52 2.18,3.45 2.08,5.8l-5.11 -0.21c-0.12,-1.32 -0.51,-2.28 -1.18,-2.91 -0.66,-0.62 -1.71,-0.99 -3.13,-1.1 -1.47,-0.11 -2.64,0.11 -3.51,0.65 -0.56,0.35 -0.87,0.85 -0.92,1.51 -0.05,0.6 0.17,1.13 0.64,1.59 0.6,0.59 2.11,1.27 4.53,2.05 2.42,0.77 4.2,1.52 5.33,2.23 1.14,0.72 2,1.64 2.58,2.77 0.59,1.14 0.82,2.5 0.7,4.09 -0.11,1.44 -0.61,2.77 -1.51,3.96 -0.9,1.2 -2.1,2.05 -3.61,2.55 -1.51,0.5 -3.36,0.67 -5.55,0.5 -3.18,-0.24 -5.57,-1.16 -7.17,-2.76 -1.59,-1.59 -2.45,-3.81 -2.57,-6.65zm46.93 10.42l-5.51 -0.11 -2.07 -5.79 -10.13 -0.19 -2.21 5.71 -5.41 -0.1 10.29 -25.07 5.4 0.1 9.63 25.45zm-9.15 -10.2l-3.33 -9.42 -3.59 9.28 6.92 0.13zm11.88 9.81l-1.92 -25.19 10.71 -0.81c2.69,-0.2 4.67,-0.12 5.92,0.24 1.26,0.36 2.29,1.09 3.12,2.19 0.82,1.1 1.29,2.4 1.4,3.88 0.14,1.89 -0.29,3.5 -1.3,4.81 -1.01,1.31 -2.61,2.21 -4.79,2.7 1.14,0.55 2.1,1.19 2.87,1.9 0.77,0.71 1.84,2.01 3.2,3.87l3.45 4.68 -6.08 0.46 -4.06 -5.22c-1.46,-1.85 -2.45,-3.02 -2.97,-3.49 -0.52,-0.47 -1.06,-0.78 -1.61,-0.93 -0.56,-0.15 -1.42,-0.17 -2.59,-0.08l-1.03 0.08 0.8 10.52 -5.1 0.39zm4 -14.92l3.76 -0.29c2.44,-0.18 3.95,-0.4 4.54,-0.66 0.59,-0.25 1.04,-0.64 1.34,-1.18 0.31,-0.53 0.43,-1.18 0.37,-1.93 -0.06,-0.85 -0.35,-1.51 -0.84,-2.01 -0.49,-0.49 -1.15,-0.77 -1.98,-0.84 -0.42,-0.03 -1.66,0.04 -3.72,0.19l-3.97 0.3 0.49 6.4zm21.36 12.47l-4.29 -24.89 10.59 -1.82c2.66,-0.46 4.63,-0.57 5.92,-0.33 1.29,0.24 2.39,0.87 3.31,1.88 0.92,1.02 1.51,2.26 1.77,3.73 0.32,1.87 0.04,3.51 -0.84,4.91 -0.88,1.4 -2.39,2.45 -4.51,3.15 1.19,0.44 2.2,0.99 3.04,1.62 0.84,0.64 2.02,1.82 3.55,3.55l3.87 4.33 -6.01 1.04 -4.54 -4.81c-1.62,-1.71 -2.72,-2.77 -3.29,-3.19 -0.56,-0.42 -1.12,-0.68 -1.69,-0.77 -0.57,-0.09 -1.43,-0.04 -2.59,0.16l-1.02 0.18 1.79 10.39 -5.04 0.87zm2.56 -15.23l3.72 -0.64c2.41,-0.42 3.89,-0.78 4.46,-1.08 0.56,-0.31 0.98,-0.74 1.23,-1.3 0.26,-0.56 0.32,-1.21 0.19,-1.96 -0.14,-0.84 -0.49,-1.47 -1.02,-1.92 -0.53,-0.44 -1.22,-0.65 -2.06,-0.65 -0.42,0.01 -1.65,0.2 -3.68,0.55l-3.92 0.68 1.09 6.33zm18.01 -1.15c-0.71,-2.48 -0.94,-4.66 -0.68,-6.56 0.19,-1.4 0.63,-2.73 1.3,-3.98 0.67,-1.26 1.51,-2.29 2.5,-3.1 1.33,-1.07 2.98,-1.9 4.96,-2.47 3.58,-1.03 6.76,-0.74 9.55,0.86 2.79,1.61 4.75,4.39 5.89,8.35 1.13,3.93 0.95,7.31 -0.55,10.14 -1.49,2.83 -4.03,4.76 -7.59,5.79 -3.61,1.04 -6.8,0.76 -9.57,-0.83 -2.76,-1.59 -4.71,-4.32 -5.82,-8.2zm5 -1.62c0.79,2.75 2.03,4.65 3.71,5.71 1.68,1.05 3.5,1.3 5.46,0.74 1.96,-0.56 3.36,-1.73 4.22,-3.5 0.85,-1.77 0.87,-4.07 0.06,-6.89 -0.8,-2.78 -2.01,-4.69 -3.63,-5.7 -1.61,-1.02 -3.43,-1.24 -5.46,-0.66 -2.02,0.58 -3.46,1.75 -4.3,3.49 -0.84,1.75 -0.86,4.02 -0.05,6.81zm25.89 5.41l-9.25 -23.28 4.75 -1.89 7.68 19.31 11.77 -4.68 1.58 3.97 -16.52 6.57zm20.08 -7.88l-11.63 -22.18 4.53 -2.38 9.65 18.4 11.22 -5.88 1.98 3.78 -15.75 8.26zm11.59 -19.37c-1.4,-2.16 -2.24,-4.19 -2.55,-6.08 -0.22,-1.39 -0.19,-2.79 0.09,-4.19 0.28,-1.4 0.78,-2.63 1.5,-3.69 0.96,-1.41 2.31,-2.68 4.04,-3.8 3.13,-2.02 6.26,-2.66 9.4,-1.94 3.13,0.74 5.82,2.83 8.05,6.29 2.22,3.43 3.02,6.72 2.41,9.86 -0.61,3.14 -2.48,5.72 -5.6,7.74 -3.16,2.04 -6.29,2.7 -9.4,1.97 -3.11,-0.72 -5.76,-2.78 -7.94,-6.17zm4.32 -3c1.55,2.41 3.29,3.87 5.2,4.4 1.91,0.52 3.72,0.23 5.44,-0.87 1.71,-1.11 2.72,-2.63 3.03,-4.57 0.3,-1.94 -0.35,-4.14 -1.94,-6.61 -1.57,-2.44 -3.28,-3.91 -5.12,-4.41 -1.84,-0.51 -3.64,-0.19 -5.42,0.95 -1.77,1.14 -2.8,2.67 -3.1,4.58 -0.3,1.91 0.34,4.09 1.92,6.54zm18.79 -27.79l7.35 -5.7c1.66,-1.29 3.02,-2.14 4.09,-2.56 1.43,-0.56 2.91,-0.73 4.43,-0.49 1.52,0.23 2.98,0.82 4.41,1.76 1.42,0.94 2.86,2.35 4.31,4.21 1.28,1.64 2.16,3.22 2.68,4.72 0.63,1.84 0.83,3.57 0.6,5.18 -0.17,1.22 -0.7,2.48 -1.59,3.78 -0.67,0.97 -1.74,2.03 -3.23,3.18l-7.57 5.87 -15.47 -19.97zm6.66 0.24l10.24 13.22 3 -2.32c1.12,-0.87 1.88,-1.56 2.28,-2.07 0.53,-0.67 0.85,-1.37 0.98,-2.09 0.13,-0.72 -0.02,-1.64 -0.44,-2.74 -0.42,-1.1 -1.23,-2.43 -2.42,-3.97 -1.2,-1.54 -2.25,-2.62 -3.16,-3.24 -0.91,-0.62 -1.79,-0.96 -2.64,-1.05 -0.84,-0.08 -1.71,0.08 -2.58,0.5 -0.66,0.31 -1.81,1.1 -3.44,2.36l-1.8 1.4zm28.38 3.44l-17.25 -18.45 13.66 -12.77 2.92 3.12 -9.92 9.28 3.83 4.1 9.22 -8.63 2.92 3.12 -9.22 8.62 4.67 5 10.28 -9.61 2.92 3.12 -14.02 13.11zm16.01 -27.98l2.74 -4.18c1.48,0.81 2.81,1.11 3.99,0.89 1.18,-0.22 2.26,-0.93 3.23,-2.13 1.03,-1.27 1.53,-2.45 1.52,-3.53 -0.02,-1.08 -0.39,-1.92 -1.11,-2.5 -0.47,-0.38 -0.97,-0.56 -1.52,-0.55 -0.54,0.01 -1.21,0.25 -1.99,0.74 -0.54,0.33 -1.67,1.15 -3.41,2.47 -2.24,1.69 -4.09,2.65 -5.56,2.88 -2.06,0.33 -3.86,-0.14 -5.42,-1.4 -1,-0.81 -1.71,-1.85 -2.13,-3.12 -0.42,-1.27 -0.42,-2.62 -0.02,-4.06 0.4,-1.44 1.21,-2.9 2.43,-4.41 1.98,-2.46 4.02,-3.87 6.12,-4.22 2.1,-0.36 4.08,0.16 5.95,1.57l-3.08 4.09c-1.15,-0.65 -2.17,-0.88 -3.06,-0.68 -0.89,0.2 -1.79,0.85 -2.68,1.95 -0.92,1.14 -1.41,2.23 -1.46,3.26 -0.03,0.66 0.21,1.2 0.72,1.62 0.47,0.38 1.02,0.5 1.67,0.38 0.83,-0.16 2.25,-1.01 4.26,-2.57 2.01,-1.56 3.63,-2.6 4.86,-3.12 1.24,-0.53 2.48,-0.71 3.75,-0.55 1.27,0.16 2.52,0.74 3.76,1.75 1.12,0.91 1.93,2.07 2.41,3.49 0.48,1.42 0.5,2.9 0.05,4.42 -0.44,1.53 -1.36,3.15 -2.74,4.86 -2.01,2.48 -4.12,3.93 -6.34,4.33 -2.22,0.41 -4.53,-0.15 -6.93,-1.66zm10.87 -20.03c-2.17,-1.38 -3.79,-2.87 -4.86,-4.46 -0.78,-1.17 -1.34,-2.46 -1.67,-3.85 -0.33,-1.39 -0.39,-2.71 -0.18,-3.98 0.28,-1.69 0.97,-3.4 2.08,-5.14 2,-3.15 4.57,-5.04 7.72,-5.69 3.15,-0.65 6.47,0.14 9.95,2.34 3.45,2.19 5.56,4.84 6.31,7.95 0.76,3.11 0.15,6.23 -1.84,9.37 -2.01,3.17 -4.58,5.08 -7.71,5.72 -3.12,0.64 -6.39,-0.11 -9.8,-2.27zm2.67 -4.53c2.42,1.53 4.61,2.14 6.57,1.81 1.95,-0.33 3.48,-1.35 4.57,-3.07 1.09,-1.72 1.37,-3.52 0.83,-5.42 -0.54,-1.89 -2.05,-3.62 -4.53,-5.19 -2.45,-1.55 -4.61,-2.18 -6.5,-1.86 -1.89,0.31 -3.39,1.35 -4.52,3.13 -1.13,1.78 -1.43,3.6 -0.9,5.46 0.53,1.86 2.02,3.57 4.48,5.13zm23 -12.94l-22.42 -11.63 7.99 -15.41 3.79 1.97 -5.64 10.87 5.32 2.76 4.87 -9.39 3.79 1.97 -4.87 9.39 9.52 4.94 -2.36 4.54zm12.12 -24.37l-19.09 -8.72 -3.11 6.8 -3.88 -1.77 8.32 -18.23 3.88 1.77 -3.09 6.77 19.09 8.72 -2.12 4.65zm8.55 -21.22l-25.92 -1.28 1.45 -5.05 17.71 1.19 -15.4 -9.23 1.68 -5.84 18.18 0.64 -15.89 -8.58 1.42 -4.93 22.59 12.84 -1.51 5.25 -19.53 -0.44 16.76 10.04 -1.55 5.39zm11.43 -49.27l-0.94 5.43 -6.04 1.17 -1.72 9.98 5.31 3.04 -0.92 5.33 -23.23 -13.96 0.92 -5.32 26.61 -5.68zm-11.46 7.51l-9.81 1.87 8.63 4.95 1.18 -6.82zm12.03 -10.19l-25.19 -1.92 0.81 -10.71c0.21,-2.69 0.58,-4.63 1.13,-5.82 0.54,-1.19 1.42,-2.1 2.63,-2.75 1.22,-0.64 2.56,-0.91 4.05,-0.8 1.89,0.14 3.41,0.81 4.56,2.02 1.15,1.2 1.8,2.91 1.95,5.14 0.72,-1.05 1.49,-1.9 2.32,-2.55 0.82,-0.66 2.26,-1.51 4.31,-2.57l5.15 -2.7 -0.46 6.08 -5.78 3.23c-2.05,1.16 -3.35,1.96 -3.9,2.41 -0.54,0.44 -0.93,0.93 -1.16,1.45 -0.23,0.53 -0.39,1.38 -0.48,2.55l-0.08 1.03 10.52 0.8 -0.39 5.1zm-14.14 -6.21l0.29 -3.76c0.19,-2.44 0.2,-3.96 0.04,-4.59 -0.16,-0.62 -0.48,-1.13 -0.96,-1.5 -0.48,-0.39 -1.1,-0.6 -1.85,-0.66 -0.85,-0.06 -1.55,0.11 -2.11,0.52 -0.56,0.41 -0.93,1.02 -1.13,1.84 -0.09,0.41 -0.21,1.65 -0.37,3.7l-0.3 3.97 6.4 0.49zm16.09 -19.21l-25.25 0.48 -0.36 -18.69 4.27 -0.08 0.26 13.58 5.61 -0.11 -0.24 -12.63 4.27 -0.08 0.24 12.63 6.84 -0.13 -0.27 -14.07 4.27 -0.08 0.37 19.19z"/>
   <polygon class="fil3" points="241.73,428.15 244.79,437.63 254.75,437.61 246.68,443.45 249.78,452.92 241.73,447.05 233.68,452.92 236.78,443.45 228.71,437.61 238.67,437.63 "/>
   <polygon class="fil3" points="738.7,427.88 741.76,437.37 751.72,437.35 743.65,443.19 746.75,452.66 738.7,446.79 730.65,452.66 733.75,443.19 725.68,437.35 735.64,437.37 "/>
  </g>
 </g>
</svg>